<svg width="110" height="105" viewBox="0 0 110 105" fill="none" xmlns="http://www.w3.org/2000/svg">
<path fill-rule="evenodd" clip-rule="evenodd" d="M55 0C24.6125 0 0 23.9936 0 53.617C0 77.3425 15.7437 97.3818 37.6062 104.486C40.3562 104.955 41.3875 103.347 41.3875 101.939C41.3875 100.666 41.3187 96.4435 41.3187 91.9531C27.5 94.4329 23.925 88.6691 22.825 85.6531C22.2063 84.1116 19.525 79.3531 17.1875 78.0797C15.2625 77.0744 12.5125 74.5946 17.1188 74.5276C21.45 74.4606 24.5438 78.4148 25.575 80.0233C30.525 88.1329 38.4313 85.8542 41.5938 84.4467C42.075 80.9616 43.5187 78.6159 45.1 77.2755C32.8625 75.9351 20.075 71.3106 20.075 50.8021C20.075 44.9713 22.2063 40.1457 25.7125 36.3926C25.1625 35.0521 23.2375 29.5564 26.2625 22.1841C26.2625 22.1841 30.8687 20.7766 41.3875 27.6798C45.7875 26.4734 50.4625 25.8702 55.1375 25.8702C59.8125 25.8702 64.4875 26.4734 68.8875 27.6798C79.4062 20.7096 84.0125 22.1841 84.0125 22.1841C87.0375 29.5564 85.1125 35.0521 84.5625 36.3926C88.0687 40.1457 90.2 44.9042 90.2 50.8021C90.2 71.3776 77.3438 75.9351 65.1062 77.2755C67.1 78.951 68.8187 82.168 68.8187 87.1946C68.8187 94.3659 68.75 100.13 68.75 101.939C68.75 103.347 69.7812 105.022 72.5312 104.486C83.4499 100.893 92.9374 94.052 99.6589 84.9266C106.38 75.8013 109.997 64.8511 110 53.617C110 23.9936 85.3875 0 55 0Z" fill="#ADADAD"/>
</svg>
