<svg width="607" height="413" viewBox="0 0 607 413" fill="none" xmlns="http://www.w3.org/2000/svg">
<g clip-path="url(#clip0_17_12)">
<path d="M432.479 316.69C433.118 329.24 422.351 339.736 408.85 339.736V363.196L358.272 362.008L332.448 361.387L228.902 358.945L236.849 317.363H256.367L282.232 266.282C286.594 257.286 294.456 250.138 304.222 246.286L338.243 232.855C340.117 235.194 342.674 237.056 345.619 238.205C346.132 238.412 346.66 238.594 347.202 238.749C348.008 238.982 348.841 239.162 349.703 239.292H349.716C350.285 239.383 350.856 239.435 351.44 239.474C351.828 239.499 352.204 239.513 352.592 239.513C352.801 239.54 353.01 239.54 353.217 239.54C354.425 239.579 355.648 239.579 356.857 239.54C357.441 239.528 358.009 239.513 358.593 239.476C359.177 239.437 359.76 239.385 360.33 239.294C361.192 239.164 362.025 238.984 362.831 238.751C363.373 238.596 363.901 238.414 364.414 238.207C369.249 236.333 372.985 232.545 374.542 227.881L414.271 248.976C423.703 253.991 429.731 263.13 430.246 273.225L432.479 316.69Z" fill="#14E956"/>
<g opacity="0.55">
<g opacity="0.55">
<g opacity="0.55">
<g opacity="0.55">
<g opacity="0.55">
<g opacity="0.55">
<path opacity="0.55" d="M347.2 238.749L309.957 252.669C300.191 256.521 292.329 263.67 287.967 272.666L264.336 319.332C262.971 322.028 260.056 323.747 256.855 323.747H235.623L236.845 317.361H256.363L282.228 266.28C286.59 257.284 294.452 250.136 304.218 246.284L338.239 232.853C340.113 235.193 342.67 237.055 345.615 238.204C346.13 238.412 346.658 238.592 347.2 238.749Z" fill="white"/>
</g>
</g>
</g>
</g>
</g>
</g>
<path d="M375.358 208.476V222.94C375.358 224.659 375.08 226.314 374.538 227.877C372.981 232.543 369.246 236.331 364.411 238.204C363.897 238.41 363.369 238.592 362.827 238.747C362.021 238.981 361.188 239.161 360.326 239.291C359.758 239.381 359.174 239.433 358.59 239.472C358.006 239.512 357.437 239.524 356.853 239.536C355.645 239.576 354.421 239.576 353.213 239.536C353.004 239.536 352.795 239.524 352.589 239.51C352.2 239.51 351.825 239.497 351.436 239.471C350.852 239.431 350.283 239.38 349.712 239.289C349.699 239.276 349.699 239.289 349.699 239.289C348.837 239.159 348.004 238.979 347.198 238.745C346.67 238.59 346.143 238.409 345.615 238.202C342.67 237.051 340.113 235.191 338.239 232.851C336.002 230.084 334.683 226.66 334.683 222.951C343.42 224.05 352.158 222.434 360.897 218.117C361.299 217.923 361.69 217.716 362.092 217.497C362.467 217.303 362.827 217.108 363.202 216.902C363.731 216.617 364.244 216.333 364.759 216.023C365.161 215.777 365.565 215.532 365.967 215.286C369.108 213.361 372.233 211.1 375.358 208.476Z" fill="#FBD6A2"/>
<g opacity="0.3">
<g opacity="0.3">
<g opacity="0.3">
<g opacity="0.3">
<g opacity="0.3">
<g opacity="0.3">
<path opacity="0.3" d="M375.358 208.476V222.94C375.358 224.659 375.08 226.314 374.538 227.877C372.981 232.543 369.246 236.331 364.411 238.204C363.897 238.41 363.369 238.592 362.827 238.747C362.021 238.981 361.188 239.161 360.326 239.291C359.758 239.381 359.174 239.433 358.59 239.472C358.006 239.512 357.437 239.524 356.853 239.536C355.645 239.576 354.421 239.576 353.213 239.536C353.004 239.536 352.795 239.524 352.589 239.51C357.603 236.575 360.895 231.405 360.895 225.538V218.119C361.297 217.924 361.688 217.718 362.09 217.498C362.465 217.317 362.825 217.11 363.2 216.903C363.729 216.618 364.242 216.335 364.757 216.025C365.159 215.792 365.563 215.548 365.965 215.287C369.108 213.361 372.233 211.1 375.358 208.476Z" fill="#1E2128"/>
</g>
</g>
</g>
</g>
</g>
</g>
<path d="M261.772 168.794C241.984 169.173 234.045 134.605 261.052 137.475V163.376C261.224 165.225 261.46 167.032 261.772 168.794Z" fill="#FBD6A2"/>
<g opacity="0.55">
<g opacity="0.55">
<g opacity="0.55">
<g opacity="0.55">
<g opacity="0.55">
<g opacity="0.55">
<path opacity="0.55" d="M261.772 168.794C241.984 169.173 234.045 134.605 261.052 137.475V137.708C245.866 140.796 249.374 161.088 261.521 167.105C261.584 167.673 261.678 168.24 261.772 168.794Z" fill="white"/>
</g>
</g>
</g>
</g>
</g>
</g>
<path d="M261.458 171.915C254.166 171.915 247.486 167.922 243.53 161.173C239.407 154.141 239.282 146.089 243.212 140.659C245.274 137.808 250.383 133.202 261.433 134.376C263.126 134.556 264.405 135.889 264.405 137.475V163.238C264.573 165.009 264.799 166.707 265.081 168.286C265.24 169.179 264.974 170.091 264.351 170.787C263.731 171.482 262.816 171.894 261.843 171.912C261.713 171.913 261.586 171.915 261.458 171.915ZM257.701 140.429C254.377 140.477 250.819 141.309 248.77 144.142C246.3 147.554 246.565 153.33 249.414 158.187C251.468 161.69 254.48 164.129 257.87 165.147C257.814 164.651 257.762 164.149 257.715 163.643C257.707 163.554 257.701 163.463 257.701 163.374V140.429Z" fill="#1E2128"/>
<path d="M398.161 173.136C398.96 170.034 399.571 166.77 399.994 163.376V140.914C405.302 137.724 409.982 136.821 413.817 137.477C430.71 140.329 431.539 173.136 398.161 173.136Z" fill="#FBD6A2"/>
<path d="M398.161 173.579H397.554L397.696 173.031C398.485 169.968 399.096 166.702 399.517 163.324L399.515 140.669L399.733 140.538C404.754 137.519 409.654 136.31 413.903 137.037C421.428 138.309 426.478 145.724 425.649 154.289C424.789 163.188 417.072 173.579 398.161 173.579ZM400.473 141.156V163.374C400.07 166.634 399.498 169.749 398.766 172.685C416.592 172.468 423.879 162.638 424.697 154.207C425.48 146.105 420.768 139.1 413.733 137.911C409.784 137.24 405.206 138.36 400.473 141.156Z" fill="#1E2128"/>
<path d="M398.161 176.252C397.135 176.252 396.166 175.815 395.53 175.065C394.895 174.315 394.663 173.337 394.902 172.409C395.649 169.503 396.235 166.404 396.641 163.194V140.914C396.641 139.855 397.217 138.87 398.173 138.294C403.818 134.9 409.434 133.555 414.42 134.409C423.412 135.928 429.471 144.579 428.508 154.528C427.541 164.55 419.01 176.252 398.161 176.252ZM403.345 142.67V163.374C403.345 163.493 403.337 163.614 403.322 163.732C403.063 165.806 402.736 167.842 402.341 169.82C415.617 168.525 421.153 161.025 421.836 153.968C422.39 148.26 419.558 141.614 413.22 140.543C410.34 140.051 406.956 140.785 403.345 142.67Z" fill="#1E2128"/>
<path d="M399.988 128.718V160.373C399.988 162.829 399.737 165.286 399.211 167.702C396.85 178.636 392.876 187.904 387.417 195.633C383.917 200.622 379.777 204.966 375.053 208.715C349.841 228.711 312.597 227.186 287.594 206.944C277.259 198.568 269.382 187.53 264.062 173.182C263.896 172.742 263.742 172.304 263.605 171.851L263.591 171.839C261.897 166.784 261.048 161.512 261.048 156.211V84.7327L395.781 86.477L399.988 128.718Z" fill="#FBD6A2"/>
<path d="M387.415 195.633C383.915 200.622 379.775 204.966 375.051 208.715C349.839 228.711 312.595 227.186 287.592 206.944C277.257 198.568 269.38 187.53 264.06 173.182C263.894 172.742 263.741 172.304 263.603 171.851C284.675 186.871 333.976 188.008 374.54 174.217C373.33 186.896 377.636 194.032 387.415 195.633Z" fill="#70DABF"/>
<g opacity="0.55">
<g opacity="0.55">
<g opacity="0.55">
<g opacity="0.55">
<g opacity="0.55">
<g opacity="0.55">
<path opacity="0.55" d="M295.969 208.301C304.72 215.398 314.987 220.192 325.71 222.559C312.013 221.149 298.621 215.863 287.592 206.944C277.257 198.568 269.38 187.53 264.06 173.182C262.046 167.728 261.046 161.988 261.046 156.211V84.7327L395.779 86.477L395.904 87.7438L269.422 86.1028V157.581C269.422 163.347 270.421 169.098 272.436 174.552C277.757 188.9 285.619 199.925 295.969 208.301Z" fill="white"/>
</g>
</g>
</g>
</g>
</g>
</g>
<g opacity="0.3">
<g opacity="0.3">
<g opacity="0.3">
<g opacity="0.3">
<g opacity="0.3">
<g opacity="0.3">
<path opacity="0.3" d="M399.988 128.718V160.373C399.988 162.829 399.737 165.286 399.211 167.702C395.322 185.707 387.084 199.175 375.053 208.715C349.841 228.711 312.597 227.186 287.594 206.944C284.94 204.786 282.441 202.472 280.12 199.95C304.513 214.323 336.519 213.6 358.982 195.776C371.013 186.237 379.251 172.769 383.14 154.763C383.668 152.359 383.917 149.89 383.917 147.435V115.793L380.972 86.2846L395.779 86.4788L399.988 128.718Z" fill="#1E2128"/>
</g>
</g>
</g>
</g>
</g>
</g>
<path d="M333.145 226.061C332.481 226.061 331.816 226.052 331.15 226.035C314.432 225.593 298.183 219.645 285.397 209.292C274.345 200.341 266.331 188.863 260.899 174.203C258.777 168.477 257.701 162.424 257.701 156.213V114.649C257.701 112.926 259.2 111.531 261.052 111.531C262.904 111.531 264.403 112.926 264.403 114.649V156.213C264.403 161.731 265.357 167.099 267.235 172.17C272.273 185.768 279.653 196.371 289.796 204.586C313.857 224.073 349.578 224.825 372.884 206.336C384.547 197.084 392.3 183.878 395.925 167.085C396.4 164.885 396.641 162.625 396.641 160.368V128.72C396.641 126.997 398.142 125.602 399.992 125.602C401.842 125.602 403.343 126.997 403.343 128.72V160.368C403.343 163.037 403.058 165.711 402.497 168.314C398.567 186.511 390.067 200.9 377.232 211.083C365.01 220.779 349.423 226.061 333.145 226.061Z" fill="#1E2128"/>
<g opacity="0.3">
<g opacity="0.3">
<g opacity="0.3">
<g opacity="0.3">
<g opacity="0.3">
<g opacity="0.3">
<path opacity="0.3" d="M425.258 146.622C420.693 159.247 412.272 163.456 399.994 159.247L399.341 172.357L413.693 169.079C413.693 169.081 427.431 159.855 425.258 146.622Z" fill="#1E2128"/>
</g>
</g>
</g>
</g>
</g>
</g>
<g opacity="0.55">
<g opacity="0.55">
<g opacity="0.55">
<g opacity="0.55">
<g opacity="0.55">
<g opacity="0.55">
<g opacity="0.55">
<path opacity="0.55" d="M250.984 84.7363C267.136 103.464 293.15 109.734 327.328 107.777C327.328 107.777 298.56 118.662 277.751 110.519C256.943 102.375 252.744 92.7486 250.984 84.7363Z" fill="white"/>
</g>
</g>
</g>
</g>
</g>
</g>
<g opacity="0.55">
<g opacity="0.55">
<g opacity="0.55">
<g opacity="0.55">
<g opacity="0.55">
<g opacity="0.55">
<path opacity="0.55" d="M295.686 113.962C289.537 113.962 283.247 113.153 277.566 110.929C257.018 102.887 252.359 93.2208 250.515 84.8254L250.118 83.0205L251.357 84.4565C266.412 101.912 291.251 109.395 327.297 107.332L330.214 107.164L327.506 108.189C327.297 108.269 311.994 113.962 295.686 113.962ZM251.892 86.4521C254.046 94.4822 259.256 102.797 277.937 110.108C294.405 116.552 316.197 110.863 324.113 108.383C290.462 109.798 266.787 102.61 251.892 86.4521Z" fill="#1E2128"/>
</g>
</g>
</g>
</g>
</g>
</g>
</g>
<path d="M413.823 137.468C409.976 136.821 405.294 137.726 399.986 140.906C388.484 137.778 384.442 120.859 384.066 97.2171C337.086 112.328 283.603 120.342 261.044 103.138V126.843C178.988 70.0354 266.421 -34.9607 383.802 31.6075C378.481 10.2288 405.792 5.53578 396.999 32.0333C396.999 32.0333 397.139 31.9175 397.401 31.6841C397.581 31.5291 397.748 31.3866 397.93 31.2316C398.083 31.1157 398.263 30.9607 398.458 30.8057C408.71 22.715 417.516 25.9328 418.407 31.3492C419.157 35.7054 414.782 41.4835 401.945 43.9262C438.731 37.3713 444.607 106.926 413.823 137.468Z" fill="#5D5D5D"/>
<path d="M250.484 82.8459C251.608 86.5732 253.266 90.1046 255.396 93.2421C257.514 96.3584 260.192 99.1218 263.17 100.724L258.934 105.557C257.224 103.911 255.909 102.095 254.846 100.237C253.785 98.3753 252.975 96.4581 252.343 94.5268C251.087 90.6604 250.505 86.7211 250.484 82.8459Z" fill="#1E2128"/>
<g opacity="0.55">
<g opacity="0.55">
<g opacity="0.55">
<g opacity="0.55">
<g opacity="0.55">
<g opacity="0.55">
<path opacity="0.55" d="M385.039 33.9861C333.806 6.82572 288.754 12.2296 261.728 31.5291C262.839 41.3534 253.226 53.1537 243.17 51.176C229.75 73.2015 232.042 101.458 257.477 124.246C181.616 66.9334 268.173 -33.9647 383.806 31.6075C379.653 14.9325 395.364 8.4061 398.295 18.9271C393.989 19.1106 389.19 23.7092 389.294 31.5879C389.321 33.6672 386.981 35.0159 385.039 33.9861Z" fill="white"/>
</g>
</g>
</g>
</g>
</g>
</g>
<g opacity="0.55">
<g opacity="0.55">
<g opacity="0.55">
<g opacity="0.55">
<g opacity="0.55">
<g opacity="0.55">
<path opacity="0.55" d="M418.407 31.3492C413.072 30.3532 406.947 32.4734 400.306 36.5321C396.832 38.4706 394.083 36.1188 396.999 32.0333C396.999 32.0333 397.139 31.9175 397.401 31.6841C397.541 31.5683 397.721 31.4258 397.93 31.2316C398.083 31.1158 398.263 30.9607 398.458 30.8057C408.712 22.715 417.518 25.9328 418.407 31.3492Z" fill="white"/>
</g>
</g>
</g>
</g>
</g>
</g>
<path d="M399.994 144.032C399.678 144.032 399.362 143.991 399.054 143.907C387.616 140.794 381.786 127.289 380.834 101.524C356.286 109.08 295.216 125.14 264.405 109.016V126.842C264.405 128.021 263.691 129.099 262.559 129.628C261.425 130.157 260.072 130.047 259.055 129.343C219.171 101.732 219.207 64.6992 236.937 40.247C249.402 23.0535 270.682 11.3245 295.316 8.06758C321.879 4.55583 350.951 10.676 379.768 25.7885C379.917 19.0091 383.281 14.4372 386.747 12.3437C390.362 10.1611 394.546 10.1664 397.662 12.3597C399.431 13.6033 402.719 17.0135 402.004 24.8566C407.801 22.1288 412.917 22.4335 416.304 24.0442C420.199 25.8971 422.344 29.6316 421.769 33.5567C421.298 36.778 419.194 39.6662 415.766 42.0002C421.386 44.1383 426.179 48.3591 429.815 54.5025C442.174 75.3841 438.945 117.11 416.264 139.608C415.485 140.381 414.338 140.734 413.214 140.541C409.939 139.982 405.999 141.017 401.815 143.531C401.265 143.86 400.631 144.032 399.994 144.032ZM384.072 94.0938C384.752 94.0938 385.426 94.2862 385.996 94.6586C386.875 95.2323 387.408 96.1659 387.423 97.1655C387.794 120.59 391.9 134.131 399.63 137.464C404.067 135.071 408.465 133.958 412.496 134.189C421.279 124.876 427.46 111.066 429.54 96.0091C431.575 81.2673 429.482 66.8746 423.941 57.51C418.851 48.9097 411.669 45.3676 402.581 46.9872C400.779 47.3079 399.023 46.2122 398.663 44.532C398.305 42.8501 399.473 41.2145 401.277 40.8706C410.887 39.0372 414.742 35.3313 415.123 32.7157C415.316 31.3919 414.633 30.2534 413.248 29.596C410.656 28.363 405.453 28.8548 399.31 34.2961C398.205 35.2743 396.528 35.4346 395.236 34.6881C393.939 33.9398 393.349 32.4734 393.799 31.1175C396.7 22.38 395.048 18.3409 393.616 17.3325C392.436 16.5022 390.969 17.2256 390.391 17.5748C387.519 19.3102 385.376 24.103 387.069 30.9037C387.373 32.126 386.86 33.3999 385.767 34.1358C384.671 34.8716 383.212 34.9233 382.06 34.2712C352.709 17.6264 323.037 10.701 296.254 14.2412C273.493 17.2505 253.894 28.0013 242.488 43.7338C227.365 64.5923 226.735 95.7544 257.699 120.372V103.141C257.699 101.935 258.446 100.839 259.616 100.323C260.788 99.8078 262.172 99.9663 263.174 100.729C284.993 117.37 339.365 108.301 382.973 94.2648C383.333 94.1508 383.704 94.0938 384.072 94.0938Z" fill="#1E2128"/>
<g opacity="0.3">
<g opacity="0.3">
<g opacity="0.3">
<g opacity="0.3">
<g opacity="0.3">
<g opacity="0.3">
<path opacity="0.3" d="M413.817 137.475C409.982 136.819 405.3 137.722 399.994 140.912C388.488 137.779 384.447 120.853 384.072 97.21C337.09 112.331 283.611 120.342 261.052 103.14V126.84C248.763 118.332 240.575 108.704 235.878 98.7102V98.6959C244.895 105.833 249.695 102.209 251.074 85.9389C262.362 129.094 347.156 114.575 375.978 76.9858C379.99 71.7547 389.74 76.0665 392.827 81.8143C410.516 114.756 444.217 79.0544 416.636 45.863C416.651 45.863 416.666 45.8772 416.699 45.8772C416.934 46.0376 417.685 46.4741 418.859 47.1743C439.65 61.289 439.039 112.463 413.817 137.475Z" fill="#1E2128"/>
</g>
</g>
</g>
</g>
</g>
</g>
<g opacity="0.15">
<g opacity="0.15">
<g opacity="0.15">
<g opacity="0.15">
<g opacity="0.15">
<g opacity="0.15">
<path opacity="0.15" d="M312.978 51.6879C325.126 49.6395 334.101 43.486 333.021 37.9436C331.941 32.4013 321.218 29.5689 309.068 31.6171C296.921 33.6656 287.946 39.8191 289.026 45.3614C290.104 50.9038 300.829 53.7362 312.978 51.6879Z" fill="white"/>
</g>
</g>
</g>
</g>
</g>
</g>
<path d="M297.279 126.59C294.799 126.261 292.513 125.894 290.316 125.634C288.12 125.37 286.02 125.24 283.976 125.27C281.922 125.27 279.955 125.571 277.931 126.063C275.844 126.476 273.899 127.399 271.482 128.231L271.43 128.249C271.168 128.34 270.877 128.215 270.779 127.971C270.732 127.85 270.741 127.722 270.793 127.613C271.865 125.422 273.604 123.369 275.982 122.081C278.299 120.736 281.093 119.943 283.835 119.93C286.581 119.868 289.267 120.419 291.659 121.418C294.043 122.444 296.206 123.836 297.803 125.847C297.97 126.058 297.922 126.353 297.696 126.508C297.585 126.585 297.451 126.614 297.323 126.596L297.279 126.59Z" fill="#1E2128"/>
<path d="M334.488 124.623C335.92 122.601 337.957 121.172 340.257 120.135C342.562 119.129 345.203 118.553 347.905 118.71C349.249 118.79 350.599 119.016 351.882 119.43C353.159 119.856 354.369 120.438 355.447 121.162C357.582 122.64 359.196 124.604 359.98 126.851C360.068 127.104 359.918 127.376 359.645 127.458C359.514 127.497 359.378 127.487 359.264 127.435L359.252 127.43C357.031 126.45 355.106 125.589 353.211 125.01C351.315 124.442 349.492 124.126 347.596 124.043C345.705 123.943 343.738 124.078 341.666 124.331C339.591 124.584 337.419 124.976 335.045 125.343L334.995 125.35C334.717 125.393 334.453 125.218 334.407 124.96C334.388 124.839 334.421 124.72 334.488 124.623Z" fill="#1E2128"/>
<path d="M387.429 197.859C387.293 197.859 387.153 197.848 387.015 197.825C379.85 196.66 371.704 192.114 371.963 177.426C339.2 187.762 299.944 188.966 275.295 180.22C274.06 179.781 273.439 178.493 273.912 177.344C274.383 176.195 275.768 175.618 277.003 176.058C301.528 184.761 341.301 183.145 373.724 172.127C374.49 171.865 375.352 171.988 376.001 172.452C376.65 172.915 377.001 173.656 376.928 174.415C375.478 189.64 382.46 192.562 387.837 193.437C389.139 193.649 390.01 194.801 389.784 196.015C389.581 197.096 388.57 197.859 387.429 197.859Z" fill="#1E2128"/>
<path d="M374.542 176.448C374.063 176.448 373.579 176.314 373.158 176.036C372.08 175.324 371.827 173.934 372.595 172.931L398.045 139.624C398.81 138.62 400.304 138.385 401.382 139.1C402.46 139.812 402.713 141.202 401.945 142.205L376.495 175.513C376.028 176.122 375.291 176.448 374.542 176.448Z" fill="#1E2128"/>
<path d="M287.53 169.641C293.817 169.626 298.895 163.357 298.874 155.639C298.851 147.922 293.736 141.678 287.45 141.693C281.162 141.709 276.084 147.978 276.107 155.695C276.128 163.413 281.242 169.657 287.53 169.641Z" fill="#1E2128"/>
<path d="M290.403 157.11C292.302 157.106 293.836 155.001 293.828 152.409C293.821 149.817 292.275 147.72 290.376 147.724C288.476 147.729 286.943 149.834 286.95 152.426C286.958 155.018 288.503 157.115 290.403 157.11Z" fill="white"/>
<path d="M355.361 155.692C355.384 147.974 350.304 141.705 344.018 141.69C337.731 141.674 332.617 147.918 332.594 155.636C332.573 163.353 337.651 169.622 343.937 169.638C350.226 169.653 355.34 163.41 355.361 155.692Z" fill="#1E2128"/>
<path d="M344.517 152.424C344.523 149.832 342.989 147.727 341.092 147.723C339.192 147.718 337.645 149.815 337.639 152.407C337.632 154.999 339.166 157.104 341.065 157.109C342.963 157.113 344.51 155.016 344.517 152.424Z" fill="white"/>
<path d="M293.704 180.904C293.539 180.904 293.372 180.9 293.206 180.895L272.78 180.227C265.372 179.985 259.428 174.394 259.248 167.497L258.657 144.787C258.567 141.368 259.957 138.161 262.571 135.755C265.184 133.35 268.631 132.094 272.319 132.212L297.288 133.028C300.961 133.147 304.32 134.629 306.746 137.199C309.172 139.768 310.317 143.059 309.97 146.464L307.669 169.079C306.983 175.794 300.898 180.904 293.704 180.904ZM293.376 176.444C298.251 176.605 302.441 173.186 302.901 168.66L305.202 146.045C305.422 143.875 304.693 141.778 303.148 140.138C301.602 138.501 299.46 137.557 297.12 137.48L272.15 136.664C269.814 136.591 267.603 137.389 265.937 138.923C264.271 140.457 263.384 142.501 263.442 144.68L264.034 167.39C264.152 171.933 268.068 175.616 272.949 175.776L293.376 176.444Z" fill="#1E2128"/>
<path d="M335.874 179.609C328.68 179.609 322.595 174.499 321.913 167.785L319.611 145.17C319.265 141.765 320.41 138.474 322.836 135.905C325.262 133.336 328.621 131.854 332.293 131.734L357.263 130.918C360.93 130.802 364.399 132.057 367.013 134.462C369.627 136.867 371.015 140.074 370.925 143.493L370.333 166.203C370.155 173.098 364.21 178.691 356.801 178.933L336.376 179.6C336.205 179.605 336.039 179.609 335.874 179.609ZM357.732 135.364C357.63 135.364 357.529 135.365 357.425 135.369L332.456 136.185C330.114 136.261 327.973 137.206 326.428 138.843C324.883 140.481 324.153 142.579 324.374 144.75L326.675 167.365C327.135 171.889 331.33 175.299 336.2 175.149L356.625 174.481C361.506 174.321 365.422 170.638 365.54 166.094L366.132 143.383C366.19 141.204 365.303 139.16 363.637 137.626C362.048 136.162 359.961 135.364 357.732 135.364Z" fill="#1E2128"/>
<path d="M321.986 152.236C321.52 152.236 321.051 152.11 320.638 151.848C316.582 149.272 312.802 149.272 308.747 151.848C307.653 152.541 306.165 152.279 305.421 151.265C304.676 150.25 304.955 148.864 306.047 148.17C311.703 144.577 317.681 144.577 323.336 148.17C324.427 148.864 324.709 150.25 323.962 151.265C323.502 151.898 322.752 152.236 321.986 152.236Z" fill="#1E2128"/>
<path d="M368.529 148.851C367.34 148.851 366.31 148.028 366.157 146.902C365.992 145.681 366.921 144.568 368.233 144.415L397.993 140.93C399.316 140.778 400.503 141.642 400.666 142.861C400.831 144.081 399.902 145.195 398.59 145.348L368.83 148.833C368.729 148.844 368.629 148.851 368.529 148.851Z" fill="#1E2128"/>
<path d="M374.54 230.997C374.199 230.997 373.853 230.949 373.51 230.845C371.75 230.316 370.781 228.559 371.35 226.92C371.787 225.66 372.009 224.322 372.009 222.94V208.476C372.009 206.753 373.51 205.358 375.36 205.358C377.209 205.358 378.711 206.753 378.711 208.476V222.94C378.711 224.973 378.381 226.956 377.728 228.835C377.269 230.156 375.953 230.997 374.54 230.997Z" fill="#1E2128"/>
<path d="M338.243 235.971C337.226 235.971 336.221 235.542 335.562 234.728C332.795 231.305 331.332 227.234 331.332 222.952C331.332 221.229 332.831 219.827 334.683 219.827C336.535 219.827 338.034 221.217 338.034 222.938C338.034 225.869 339.032 228.645 340.918 230.977C342.03 232.353 341.733 234.307 340.255 235.342C339.652 235.768 338.943 235.971 338.243 235.971Z" fill="#1E2128"/>
<path d="M341.555 316.973L311.083 309.7C307.121 308.754 302.927 309.112 299.217 310.714L286.741 316.095C282.711 317.834 279.528 320.916 277.824 324.732L274.847 331.396C272.859 335.847 276.373 340.746 281.552 340.746H301.149C302.095 340.746 303.033 340.59 303.919 340.281L314.043 336.777C315.705 336.338 317.474 336.41 319.087 336.982L323.629 338.589C325.892 339.391 328.308 339.75 330.727 339.651L341.557 339.198V316.973H341.555Z" fill="#FDBD91"/>
<g opacity="0.55">
<g opacity="0.55">
<g opacity="0.55">
<g opacity="0.55">
<g opacity="0.55">
<g opacity="0.55">
<path opacity="0.55" d="M341.553 318.853V324.837L313.103 318.044C309.153 317.101 304.959 317.459 301.239 319.065L288.775 324.438C284.738 326.177 281.56 329.269 279.848 333.076L276.882 339.75C276.74 340.082 276.61 340.413 276.539 340.746C274.487 338.929 273.615 336.009 274.843 333.276L277.824 326.614C279.536 322.792 282.716 319.713 286.738 317.976L299.216 312.588C302.924 310.995 307.117 310.637 311.081 311.58L341.553 318.853Z" fill="white"/>
</g>
</g>
</g>
</g>
</g>
</g>
<path d="M301.147 343.864H281.55C277.996 343.864 274.695 342.222 272.723 339.471C270.749 336.72 270.387 333.254 271.75 330.199L274.726 323.535C276.759 318.985 280.524 315.337 285.328 313.265L297.803 307.885C302.204 305.987 307.215 305.559 311.912 306.68L342.386 313.953C343.868 314.306 344.904 315.549 344.904 316.973V339.2C344.904 340.868 343.493 342.239 341.703 342.314L330.872 342.767C327.977 342.89 325.139 342.464 322.434 341.504L317.894 339.896C316.996 339.579 315.996 339.526 315.066 339.749L305.085 343.203C303.824 343.643 302.499 343.864 301.147 343.864ZM306.682 312.301C304.603 312.301 302.531 312.718 300.624 313.541L288.149 318.924C284.871 320.337 282.303 322.826 280.915 325.931L277.939 332.595C277.43 333.737 277.56 334.983 278.297 336.012C279.034 337.04 280.22 337.632 281.55 337.632H301.147C301.696 337.632 302.236 337.541 302.749 337.363L312.873 333.858C312.957 333.83 313.042 333.803 313.128 333.782C315.466 333.165 318.005 333.267 320.278 334.072L324.82 335.679C326.666 336.333 328.603 336.624 330.576 336.54L338.204 336.221V319.394L310.25 312.722C309.08 312.44 307.879 312.301 306.682 312.301Z" fill="#1E2128"/>
<path d="M408.85 366.314C408.821 366.314 408.793 366.314 408.766 366.314L228.816 362.061C227.839 362.038 226.922 361.619 226.306 360.915C225.689 360.212 225.431 359.292 225.603 358.398L233.549 316.816C233.833 315.329 235.225 314.243 236.849 314.243H254.241L279.201 264.951C283.904 255.251 292.333 247.586 302.914 243.413L336.933 229.985C338.356 229.423 340.004 229.84 340.927 230.991C342.455 232.898 344.525 234.4 346.915 235.332C347.348 235.506 347.763 235.649 348.186 235.77C348.801 235.948 349.437 236.089 350.086 236.192C350.182 236.203 350.275 236.215 350.369 236.233C350.733 236.287 351.141 236.328 351.677 236.363C352.137 236.395 352.583 236.367 353.033 236.422C353.071 236.426 353.144 236.42 353.217 236.42C353.255 236.42 353.293 236.42 353.331 236.422C354.463 236.459 355.61 236.458 356.74 236.422C357.31 236.41 357.824 236.399 358.35 236.363C358.95 236.324 359.384 236.279 359.763 236.219C360.497 236.108 361.182 235.961 361.833 235.772C362.264 235.649 362.68 235.506 363.08 235.344C367.08 233.794 370.073 230.742 371.337 226.954C371.637 226.051 372.363 225.324 373.307 224.978C374.253 224.632 375.314 224.702 376.196 225.171L415.927 246.266C426.417 251.843 433.017 261.865 433.589 273.075L435.826 316.542C435.826 316.544 435.826 316.544 435.826 316.544C436.178 323.471 433.54 330.051 428.395 335.07C424.029 339.33 418.37 341.965 412.199 342.667V363.198C412.199 364.039 411.835 364.844 411.188 365.43C410.564 365.997 409.723 366.314 408.85 366.314ZM232.883 355.919L405.499 360V339.736C405.499 338.013 407 336.618 408.85 336.618C414.458 336.618 419.676 334.539 423.546 330.765C427.414 326.993 429.398 322.047 429.132 316.839L426.895 273.371C426.434 264.3 421.091 256.192 412.605 251.681L376.147 232.322C373.872 236.233 370.213 239.335 365.699 241.083C365.115 241.318 364.464 241.541 363.809 241.728C362.869 241.999 361.874 242.216 360.861 242.368C360.288 242.458 359.652 242.526 358.829 242.58C358.197 242.622 357.577 242.637 356.943 242.651C355.704 242.69 354.421 242.692 353.157 242.651C352.952 242.651 352.696 242.649 352.405 242.624C352.001 242.621 351.604 242.605 351.196 242.578C350.446 242.528 349.846 242.467 349.274 242.38C349.239 242.376 349.203 242.371 349.169 242.366C348.156 242.214 347.16 241.997 346.208 241.723C345.561 241.537 344.91 241.315 344.286 241.063C341.655 240.035 339.269 238.516 337.291 236.613L305.53 249.151C296.505 252.71 289.315 259.247 285.284 267.559L259.396 318.689C258.842 319.781 257.661 320.478 256.365 320.478H239.654L232.883 355.919Z" fill="#1E2128"/>
<path d="M390.749 283.807C392.124 290.032 392.821 296.257 393.418 302.482C393.549 304.04 393.679 305.595 393.774 307.152L393.849 308.319L393.868 308.611C393.874 308.717 393.87 308.913 393.87 309.059C393.874 309.376 393.834 309.693 393.788 310.01C393.581 311.275 393.02 312.501 392.17 313.522C391.324 314.55 390.182 315.373 388.876 315.881C388.229 316.141 387.54 316.317 386.841 316.414L386.316 316.472L385.966 316.503L385.342 316.554C383.674 316.693 382.008 316.834 380.338 316.937C373.667 317.426 366.982 317.704 360.296 317.933C353.609 318.17 346.923 318.4 340.242 318.735L343.413 315.617L343.409 339.736L340.058 336.618H408.848C410.698 336.618 412.199 338.015 412.199 339.736C412.199 341.459 410.698 342.854 408.848 342.854H340.058C338.206 342.854 336.707 341.459 336.707 339.736L336.701 315.617C336.701 313.955 338.112 312.594 339.874 312.499C346.555 312.152 353.228 311.701 359.901 311.256C366.574 310.803 373.251 310.399 379.94 310.206C381.611 310.138 383.285 310.11 384.957 310.078L385.958 310.058C386.088 310.055 386.219 310.042 386.343 310.005C386.598 309.942 386.837 309.807 387.052 309.631C387.262 309.451 387.423 309.217 387.517 308.952C387.53 308.884 387.569 308.818 387.576 308.745C387.584 308.697 387.595 308.699 387.603 308.61L387.622 308.318L387.699 307.15C387.796 305.595 387.929 304.038 388.059 302.482C388.666 296.257 389.368 290.032 390.749 283.807Z" fill="#1E2128"/>
<path d="M307.919 279.192L304.637 309.691C304.452 311.414 302.801 312.67 300.949 312.497C299.098 312.325 297.748 310.789 297.934 309.066C297.957 308.856 298.006 308.636 298.071 308.44L307.919 279.192Z" fill="#1E2128"/>
<g opacity="0.3">
<g opacity="0.3">
<g opacity="0.3">
<g opacity="0.3">
<g opacity="0.3">
<g opacity="0.3">
<path opacity="0.3" d="M408.85 339.647H408.754V339.736V359.723L358.268 361.917L330.922 363.096L332.519 361.443L336.548 357.281L336.582 357.247L336.571 357.202L332.55 340.812L341.578 339.276L341.655 339.264L341.657 339.191L342.001 328.428L400.582 324.604C407.199 324.173 412.212 318.869 411.826 312.708L409.664 278.198C409.214 271.007 404.925 264.505 398.238 260.878L358.906 239.535C359.388 239.497 359.869 239.449 360.344 239.373C361.209 239.242 362.048 239.061 362.858 238.827C363.402 238.671 363.934 238.489 364.451 238.28C369.274 236.41 373.01 232.645 374.596 228.003L414.221 249.044C423.625 254.045 429.635 263.155 430.149 273.22L432.383 316.693C433.021 329.194 422.296 339.647 408.85 339.647Z" fill="#1E2128" stroke="#1E2128"/>
</g>
</g>
</g>
</g>
</g>
</g>
<path d="M336.443 349.634C336.443 352.556 335.167 355.212 333.107 357.129C331.045 359.048 328.197 360.233 325.051 360.233H251.197C244.902 360.233 239.803 355.481 239.803 349.632C239.803 346.704 241.079 344.053 243.139 342.129C245.201 340.21 248.049 339.025 251.195 339.025H325.049C331.343 339.025 336.443 343.777 336.443 349.634Z" fill="#D0D0D0"/>
<path d="M325.049 363.353H251.195C243.064 363.353 236.45 357.199 236.45 349.634C236.45 345.974 237.982 342.526 240.765 339.929C243.553 337.334 247.256 335.907 251.195 335.907H325.049C333.18 335.907 339.794 342.065 339.794 349.634C339.794 353.298 338.26 356.744 335.476 359.335C332.692 361.926 328.988 363.353 325.049 363.353ZM251.195 342.143C249.046 342.143 247.026 342.922 245.508 344.335C243.991 345.751 243.152 347.634 243.152 349.634C243.152 353.76 246.76 357.117 251.195 357.117H325.049C327.198 357.117 329.218 356.338 330.737 354.925C332.255 353.512 333.092 351.633 333.092 349.634C333.092 345.504 329.484 342.143 325.049 342.143H251.195Z" fill="#1E2128"/>
<path d="M251.195 360.235H90.4602C84.1662 360.235 79.0613 355.483 79.0613 349.634C79.0613 346.706 80.3366 344.055 82.4046 342.131C84.4668 340.212 87.3142 339.027 90.4602 339.027H251.195C248.049 339.027 245.199 340.214 243.139 342.131C241.077 344.055 239.803 346.706 239.803 349.634C239.801 355.483 244.901 360.235 251.195 360.235Z" fill="#D0D0D0"/>
<g opacity="0.55">
<g opacity="0.55">
<g opacity="0.55">
<g opacity="0.55">
<g opacity="0.55">
<g opacity="0.55">
<path opacity="0.55" d="M97.9721 360.235H91.4157C85.1217 360.235 80.0168 355.483 80.0168 349.634C80.0168 346.706 81.2921 344.055 83.3601 342.131C85.4223 340.212 88.2697 339.027 91.4157 339.027H97.9721C94.8261 339.027 91.9768 340.214 89.9164 342.131C87.8484 344.055 86.5731 346.706 86.5731 349.634C86.5731 355.483 91.68 360.235 97.9721 360.235Z" fill="white"/>
</g>
</g>
</g>
</g>
</g>
</g>
<path d="M325.049 363.353H251.195C243.064 363.353 236.45 357.199 236.45 349.634C236.45 345.974 237.982 342.526 240.765 339.929C243.553 337.334 247.256 335.907 251.195 335.907H325.049C333.18 335.907 339.794 342.065 339.794 349.634C339.794 353.298 338.26 356.744 335.476 359.335C332.692 361.926 328.988 363.353 325.049 363.353ZM251.195 342.143C249.046 342.143 247.026 342.922 245.508 344.335C243.991 345.751 243.152 347.634 243.152 349.634C243.152 353.76 246.76 357.117 251.195 357.117H325.049C327.198 357.117 329.218 356.338 330.737 354.925C332.255 353.512 333.092 351.633 333.092 349.634C333.092 345.504 329.484 342.143 325.049 342.143H251.195Z" fill="#1E2128"/>
<path d="M251.195 363.353H90.4602C82.3261 363.353 75.7103 357.199 75.7103 349.634C75.7103 345.969 77.246 342.521 80.0359 339.925C82.8201 337.334 86.5233 335.907 90.4621 335.907H251.197C253.048 335.907 254.547 337.302 254.547 339.025C254.547 340.748 253.048 342.143 251.197 342.143C249.048 342.143 247.028 342.922 245.509 344.335C243.993 345.751 243.154 347.634 243.154 349.634C243.154 353.76 246.762 357.117 251.197 357.117C253.048 357.117 254.547 358.512 254.547 360.235C254.546 361.956 253.046 363.353 251.195 363.353ZM90.4602 342.143C88.3118 342.143 86.2917 342.922 84.7732 344.335C83.249 345.753 82.4103 347.634 82.4103 349.634C82.4103 353.76 86.0217 357.117 90.4583 357.117H238.84C237.327 354.963 236.449 352.393 236.449 349.634C236.449 346.936 237.281 344.354 238.832 342.143H90.4602Z" fill="#1E2128"/>
<path d="M235.231 347.836C234.35 348.053 233.475 348.167 232.609 348.174H78.9253C78.619 348.189 78.3126 348.181 78.0139 348.167C73.5121 347.957 69.4623 345.097 68.2234 340.827L32.575 218.616C31.0317 213.315 34.396 207.852 40.1003 206.402C41.0328 206.165 41.9788 206.049 42.9055 206.049C43.0511 206.049 43.1966 206.049 43.3421 206.069L196.421 206.055C196.538 206.047 196.655 206.047 196.771 206.047C201.491 206.047 205.811 208.969 207.1 213.402L242.75 335.615C244.299 340.923 240.935 346.393 235.231 347.836Z" fill="#B8C5D3"/>
<g opacity="0.55">
<g opacity="0.55">
<g opacity="0.55">
<g opacity="0.55">
<g opacity="0.55">
<g opacity="0.55">
<path opacity="0.55" d="M48.0602 206.071H46.9669C47.1928 206.057 47.4188 206.051 47.637 206.051C47.7845 206.049 47.9147 206.049 48.0602 206.071Z" fill="white"/>
</g>
</g>
</g>
</g>
</g>
<g opacity="0.55">
<g opacity="0.55">
<g opacity="0.55">
<g opacity="0.55">
<g opacity="0.55">
<path opacity="0.55" d="M48.0622 209.189H46.9688L46.7543 202.96C47.053 202.942 47.3518 202.933 47.639 202.933C47.8496 202.933 48.1675 202.933 48.56 202.988L48.0622 209.189Z" fill="#1E2128"/>
</g>
</g>
</g>
</g>
</g>
</g>
<g opacity="0.6">
<g opacity="0.6">
<g opacity="0.6">
<g opacity="0.6">
<g opacity="0.6">
<g opacity="0.6">
<path opacity="0.6" d="M191.948 206.058L188.8 211.478H188.22L186.079 216.674H40.2822C39.1984 216.674 38.3655 217.621 38.6451 218.596C38.647 218.603 38.6489 218.608 38.6508 218.616L74.2953 340.83C75.5438 345.129 79.6472 348.002 84.1777 348.176H80.2619C75.4097 348.342 70.8869 345.388 69.558 340.83L33.9499 218.74L33.9135 218.616C32.3702 213.311 35.7326 207.851 41.433 206.398C42.3694 206.167 43.3153 206.049 44.2421 206.049C44.3857 206.049 44.5274 206.049 44.6787 206.065H49.3968L191.948 206.058Z" fill="white"/>
</g>
</g>
</g>
</g>
</g>
</g>
<path d="M232.403 351.303C226.055 351.303 220.534 347.39 218.867 341.643L183.216 219.433C181.191 212.485 185.621 205.288 193.097 203.393C194.544 203.027 196.015 202.831 197.467 202.956C203.563 203.223 208.724 207.081 210.33 212.588L245.982 334.801C246.969 338.163 246.486 341.685 244.623 344.718C242.758 347.752 239.734 349.928 236.11 350.843C236.104 350.845 236.098 350.847 236.09 350.847C235.035 351.107 233.969 351.258 232.921 351.292C232.747 351.301 232.575 351.303 232.403 351.303ZM196.779 209.167C196.145 209.167 195.498 209.249 194.855 209.411C190.947 210.402 188.626 214.167 189.687 217.801L225.337 340.014C226.233 343.104 229.247 345.176 232.68 345.063C233.226 345.046 233.793 344.964 234.365 344.823C236.255 344.344 237.833 343.207 238.806 341.623C239.78 340.039 240.033 338.199 239.516 336.442L203.864 214.224C203.018 211.325 200.295 209.299 197.089 209.185C197.013 209.181 196.936 209.176 196.86 209.169L196.779 209.167Z" fill="#1E2128"/>
<g opacity="0.3">
<g opacity="0.3">
<g opacity="0.3">
<g opacity="0.3">
<g opacity="0.3">
<g opacity="0.3">
<path opacity="0.3" d="M235.231 349.085C234.423 349.284 233.607 349.402 232.799 349.429C227.947 349.591 223.424 346.642 222.101 342.081L186.449 219.868C184.901 214.566 188.268 209.1 193.976 207.653C194.91 207.418 195.852 207.3 196.777 207.3C196.923 207.3 197.068 207.3 197.216 207.318C201.748 207.48 205.842 210.357 207.096 214.657L242.748 336.869C244.303 342.172 240.929 347.647 235.231 349.085Z" fill="#1E2128"/>
</g>
</g>
</g>
</g>
</g>
</g>
<path d="M78.5213 351.299C72.1774 351.299 66.6551 347.387 64.9854 341.643L29.337 219.433C27.315 212.488 31.744 205.294 39.2118 203.394C40.4201 203.088 41.6609 202.931 42.8998 202.931C43.0549 202.931 43.2674 202.931 43.5202 202.951L196.335 202.937C196.478 202.931 196.624 202.929 196.769 202.929C203.102 202.929 208.68 206.901 210.334 212.586L245.982 334.795C248.016 341.749 243.587 348.949 236.111 350.842C236.104 350.843 236.096 350.845 236.089 350.847C234.93 351.132 233.77 351.28 232.636 351.289H78.977C78.8257 351.298 78.6725 351.299 78.5213 351.299ZM42.9591 209.169C42.2372 209.171 41.6015 209.253 40.9792 209.411C37.0691 210.406 34.7483 214.17 35.8053 217.801L71.4556 340.012C72.3536 343.102 75.3656 345.178 78.8008 345.06C78.841 345.058 78.8813 345.058 78.9215 345.058H232.609C233.151 345.055 233.75 344.976 234.365 344.825C238.269 343.831 240.579 340.069 239.516 336.435L203.866 214.222C203 211.246 200.082 209.169 196.771 209.169H196.63C196.582 209.171 196.471 209.174 196.423 209.174L43.3402 209.189C43.2119 209.189 43.0836 209.181 42.9591 209.169ZM42.8366 209.153C42.8423 209.153 42.8461 209.155 42.8519 209.155C42.8461 209.155 42.8423 209.155 42.8366 209.153Z" fill="#1E2128"/>
<path d="M128.386 296.916C132.804 295.38 134.032 288.28 131.131 281.061C128.23 273.84 122.297 269.232 117.88 270.768C113.463 272.306 112.234 279.404 115.135 286.625C118.037 293.846 123.97 298.454 128.386 296.916Z" fill="#1E2128"/>
<g opacity="0.3">
<g opacity="0.3">
<g opacity="0.3">
<g opacity="0.3">
<g opacity="0.3">
<g opacity="0.3">
<path opacity="0.3" d="M195.529 249.737C205.658 319.619 164.353 346.772 92.0515 348.174H225.172L222.805 344.005L195.529 249.737Z" fill="#1E2128"/>
</g>
</g>
</g>
</g>
</g>
</g>
<path d="M308.17 351.134H317.723C318.212 351.134 318.606 350.765 318.606 350.312V347.702C318.606 347.248 318.21 346.879 317.723 346.879H308.17C307.682 346.879 307.288 347.248 307.288 347.702V350.312C307.288 350.767 307.682 351.134 308.17 351.134Z" fill="#1E2128"/>
<path d="M292.323 351.134H301.876C302.365 351.134 302.759 350.765 302.759 350.312V347.702C302.759 347.248 302.363 346.879 301.876 346.879H292.323C291.835 346.879 291.44 347.248 291.44 347.702V350.312C291.44 350.767 291.835 351.134 292.323 351.134Z" fill="#1E2128"/>
<g opacity="0.3">
<g opacity="0.3">
<g opacity="0.3">
<g opacity="0.3">
<g opacity="0.3">
<g opacity="0.3">
<path opacity="0.3" d="M336.443 348.388C336.443 351.31 335.167 353.967 333.107 355.884C331.045 357.803 328.197 358.987 325.051 358.987H251.197C244.902 358.987 239.803 354.236 239.803 348.386C239.803 345.459 241.079 342.808 243.139 340.884C245.201 338.965 248.049 337.78 251.195 337.78H325.049C331.343 337.782 336.443 342.532 336.443 348.388Z" fill="#1E2128"/>
</g>
</g>
</g>
</g>
</g>
</g>
<g opacity="0.32">
<g opacity="0.32">
<g opacity="0.32">
<g opacity="0.32">
<g opacity="0.32">
<g opacity="0.32">
<path opacity="0.32" d="M62.6742 262.968C59.8077 252.457 58.2318 243.761 64.6867 242.236C71.1416 240.712 78.6975 247.996 81.5639 258.508C84.4304 269.02 81.5199 278.775 75.065 280.298C68.6101 281.822 65.5407 273.478 62.6742 262.968Z" fill="white"/>
</g>
</g>
</g>
</g>
</g>
</g>
<g opacity="0.32">
<g opacity="0.32">
<g opacity="0.32">
<g opacity="0.32">
<g opacity="0.32">
<g opacity="0.32">
<path opacity="0.32" d="M73.4604 300.015C72.2904 295.721 71.8347 292.125 76.1028 291.117C80.3729 290.108 84.7827 292.772 85.9527 297.066C87.1227 301.36 84.6123 305.656 80.3423 306.664C76.0722 307.671 74.6303 304.307 73.4604 300.015Z" fill="white"/>
</g>
</g>
</g>
</g>
</g>
</g>
<path d="M573.401 379.073H34.2179C28.6496 379.073 24.1345 374.871 24.1345 369.69C24.1345 364.509 28.6496 360.308 34.2179 360.308H573.401C578.969 360.308 583.484 364.509 583.484 369.69C583.484 374.873 578.969 379.073 573.401 379.073Z" fill="#666666"/>
<g opacity="0.55">
<g opacity="0.55">
<g opacity="0.55">
<g opacity="0.55">
<g opacity="0.55">
<g opacity="0.55">
<path opacity="0.55" d="M583.486 369.687C583.486 370.875 583.252 371.999 582.82 373.043C581.366 369.523 577.692 367.023 573.397 367.023H34.2198C31.4338 367.023 28.9139 368.076 27.0833 369.77C26.0952 370.69 25.3082 371.805 24.797 373.043C24.3642 372.001 24.1306 370.875 24.1306 369.687C24.1306 367.105 25.2623 364.75 27.0833 363.057C28.9139 361.363 31.4338 360.31 34.2198 360.31H573.397C578.969 360.31 583.486 364.513 583.486 369.687Z" fill="white"/>
</g>
</g>
</g>
</g>
</g>
</g>
<path d="M573.401 382.191H34.2199C26.8114 382.191 20.7855 376.584 20.7855 369.69C20.7855 362.797 26.8114 357.19 34.2199 357.19H573.403C580.811 357.19 586.837 362.797 586.837 369.69C586.835 376.584 580.809 382.191 573.401 382.191ZM34.2199 363.426C30.507 363.426 27.4874 366.235 27.4874 369.69C27.4874 373.145 30.507 375.955 34.2199 375.955H573.403C577.115 375.955 580.135 373.145 580.135 369.69C580.135 366.235 577.115 363.426 573.403 363.426H34.2199Z" fill="#1E2128"/>
<path d="M449.214 341.732C449.214 336.203 454.032 331.72 459.974 331.72H550.85C553.431 331.72 555.524 329.773 555.524 327.371C555.524 324.969 553.431 323.022 550.85 323.022H459.116C448.012 323.022 439.01 331.398 439.01 341.73C439.01 352.062 448.012 360.438 459.116 360.438H550.85C553.431 360.438 555.524 358.49 555.524 356.089C555.524 353.687 553.431 351.74 550.85 351.74H459.974C454.032 351.743 449.214 347.26 449.214 341.732Z" fill="#34A958"/>
<path d="M550.85 362.667H459.116C446.71 362.667 436.617 353.275 436.617 341.732C436.617 330.188 446.71 320.797 459.116 320.797H550.85C554.746 320.797 557.917 323.747 557.917 327.373C557.917 330.999 554.746 333.949 550.85 333.949H459.976C455.363 333.949 451.61 337.441 451.61 341.733C451.61 346.026 455.363 349.518 459.976 349.518H550.85C554.746 349.518 557.917 352.466 557.917 356.092C557.917 359.716 554.746 362.667 550.85 362.667ZM459.116 325.251C449.349 325.251 441.404 332.643 441.404 341.732C441.404 350.82 449.349 358.212 459.116 358.212H550.85C552.108 358.212 553.13 357.261 553.13 356.09C553.13 354.92 552.108 353.97 550.85 353.97H459.976C452.722 353.97 446.823 348.481 446.823 341.732C446.823 334.984 452.722 329.493 459.976 329.493H550.85C552.108 329.493 553.13 328.542 553.13 327.371C553.13 326.2 552.108 325.249 550.85 325.249H459.116V325.251Z" fill="#1E2128"/>
<g opacity="0.5">
<g opacity="0.5">
<g opacity="0.5">
<g opacity="0.5">
<g opacity="0.5">
<g opacity="0.5">
<path opacity="0.5" d="M550.85 353.829H459.974C456.768 353.829 453.837 352.739 451.568 350.945C453.954 353.557 457.504 355.221 461.469 355.221H552.345C552.625 355.221 552.887 355.274 553.138 355.355C552.807 354.469 551.91 353.829 550.85 353.829Z" fill="white"/>
</g>
</g>
</g>
</g>
</g>
</g>
<g opacity="0.5">
<g opacity="0.5">
<g opacity="0.5">
<g opacity="0.5">
<g opacity="0.5">
<g opacity="0.5">
<path opacity="0.5" d="M442.748 343.123C442.748 333.958 450.762 326.502 460.612 326.502H552.345C552.625 326.502 552.887 326.555 553.138 326.635C552.807 325.752 551.912 325.11 550.852 325.11H459.118C449.268 325.11 441.255 332.567 441.255 341.732C441.255 346.667 443.581 351.105 447.265 354.152C444.456 351.216 442.748 347.351 442.748 343.123Z" fill="white"/>
</g>
</g>
</g>
</g>
</g>
</g>
<path d="M459.3 331.72C453.73 331.72 449.214 336.203 449.214 341.732C449.214 347.26 453.73 351.743 459.3 351.743H549.346V331.72H459.3Z" fill="white"/>
<path d="M549.346 353.829H459.3C452.502 353.829 446.972 348.402 446.972 341.732C446.972 335.061 452.502 329.634 459.3 329.634H549.346C550.585 329.634 551.589 330.568 551.589 331.72V351.743C551.589 352.896 550.585 353.829 549.346 353.829ZM459.3 333.807C454.976 333.807 451.457 337.361 451.457 341.732C451.457 346.102 454.974 349.657 459.3 349.657H547.104V333.808H459.3V333.807Z" fill="#1E2128"/>
<path d="M478.232 355.912L474.833 353.382C474.136 352.864 473.144 352.864 472.447 353.382L469.048 355.912C468.29 356.477 467.166 355.975 467.166 355.071V342.218C467.166 341.575 467.727 341.051 468.42 341.051H478.86C479.551 341.051 480.114 341.573 480.114 342.218V355.071C480.114 355.975 478.99 356.477 478.232 355.912Z" fill="#FFEB3B"/>
<path d="M468.33 357.935C467.878 357.935 467.423 357.84 466.994 357.649C465.919 357.168 465.251 356.181 465.251 355.071V342.218C465.251 340.593 466.672 339.269 468.418 339.269H478.858C480.606 339.269 482.027 340.591 482.027 342.218V355.071C482.027 356.181 481.359 357.168 480.284 357.648C479.208 358.129 477.964 357.997 477.033 357.304L473.636 354.774L470.243 357.304C469.686 357.721 469.012 357.935 468.33 357.935ZM473.64 351.207C474.482 351.207 475.325 351.469 476.03 351.993L478.197 353.607V342.835H469.081V353.607L471.25 351.993C471.955 351.469 472.797 351.207 473.64 351.207Z" fill="#1E2128"/>
<g opacity="0.5">
<g opacity="0.5">
<g opacity="0.5">
<g opacity="0.5">
<g opacity="0.5">
<g opacity="0.5">
<path opacity="0.5" d="M470.532 342.79H469.037V353.696L470.532 352.584V342.79Z" fill="white"/>
</g>
</g>
</g>
</g>
</g>
</g>
<g opacity="0.5">
<g opacity="0.5">
<g opacity="0.5">
<g opacity="0.5">
<g opacity="0.5">
<g opacity="0.5">
<path opacity="0.5" d="M477.496 352.026C476.801 351.508 475.968 351.25 475.135 351.25C474.885 351.25 474.636 351.282 474.389 351.328C474.961 351.437 475.517 351.665 476.001 352.026L478.245 353.696V352.584L477.496 352.026Z" fill="white"/>
</g>
</g>
</g>
</g>
</g>
</g>
<path d="M480.763 339.446L518.885 340.837L480.763 342.229C479.938 342.259 479.243 341.66 479.21 340.892C479.178 340.125 479.821 339.478 480.646 339.448C480.683 339.444 480.725 339.444 480.763 339.446Z" fill="#1E2128"/>
<g opacity="0.3">
<g opacity="0.3">
<g opacity="0.3">
<g opacity="0.3">
<g opacity="0.3">
<g opacity="0.3">
<path opacity="0.3" d="M549.904 337.112L449.448 345.698L452.108 335.35L456.47 331.547H464.692H549.904V337.112Z" fill="#1E2128"/>
</g>
</g>
</g>
</g>
</g>
</g>
<path d="M481.272 6.08275H583.271C590.95 6.08275 597.173 11.8751 597.173 19.018V88.7683C597.173 95.9129 590.948 101.703 583.271 101.703H521.388L499.314 123.955C493.951 129.361 484.244 125.831 484.244 118.473V101.634C474.8 100.925 467.369 93.5842 467.369 84.6133V19.0162C467.369 11.8733 473.594 6.08275 481.272 6.08275Z" fill="white"/>
<path d="M492.961 129.24C491.542 129.24 490.106 128.996 488.721 128.491C484.256 126.867 481.372 122.936 481.372 118.475V103.943C471.721 102.049 464.499 93.994 464.499 84.6151V19.0197C464.499 10.4123 472.024 3.41197 481.274 3.41197H583.273C592.524 3.41197 600.049 10.4141 600.049 19.0197V88.7701C600.049 97.3757 592.524 104.378 583.273 104.378H522.648L501.426 125.769C499.18 128.03 496.112 129.24 492.961 129.24ZM481.273 8.75353C475.191 8.75353 470.241 13.3575 470.241 19.0162V84.6116C470.241 92.0627 476.493 98.3681 484.474 98.9686C485.966 99.0808 487.115 100.239 487.115 101.632V118.471C487.115 121.194 489.026 122.859 490.812 123.51C492.601 124.16 495.216 124.142 497.202 122.14L519.276 99.8879C519.82 99.3391 520.586 99.0274 521.386 99.0274H583.27C589.351 99.0274 594.301 94.4234 594.301 88.7647V19.0144C594.301 13.3557 589.353 8.75175 583.27 8.75175H481.273V8.75353Z" fill="#1E2128"/>
<g opacity="0.2">
<g opacity="0.2">
<g opacity="0.2">
<g opacity="0.2">
<g opacity="0.2">
<g opacity="0.2">
<path opacity="0.2" d="M589.481 8.62703C587.298 34.3638 536.881 76.8647 516.637 92.9571C510.979 97.4559 506.123 102.758 502.232 108.661L490.418 126.58L497.539 124.851L519.768 101.736L587.766 100.576L598.6 91.7669V16.2616L589.481 8.62703Z" fill="#1E2128"/>
</g>
</g>
</g>
</g>
</g>
</g>
<path d="M575.656 87.6209H488.332C485.004 87.6209 482.305 85.1104 482.305 82.012V23.2869C482.305 20.9333 484.355 19.0233 486.887 19.0233H577.102C579.631 19.0233 581.684 20.9315 581.684 23.2869V82.012C581.684 85.1104 578.984 87.6209 575.656 87.6209Z" fill="#3C4A59"/>
<path d="M575.656 89.3188H488.332C484.003 89.3188 480.482 86.0423 480.482 82.0138V23.2887C480.482 20.0032 483.354 17.3289 486.887 17.3289H577.102C580.633 17.3289 583.507 20.0032 583.507 23.2887V82.0138C583.507 86.0405 579.986 89.3188 575.656 89.3188ZM486.887 20.7213C485.366 20.7213 484.129 21.8722 484.129 23.2869V82.012C484.129 84.1679 486.016 85.9229 488.332 85.9229H575.656C577.973 85.9229 579.861 84.1679 579.861 82.012V23.2869C579.861 21.8722 578.624 20.7213 577.104 20.7213H486.887Z" fill="#1E2128"/>
<g opacity="0.4">
<g opacity="0.4">
<g opacity="0.4">
<g opacity="0.4">
<g opacity="0.4">
<g opacity="0.4">
<path opacity="0.4" d="M485.952 82.012V23.2869C485.952 21.8723 487.189 20.7213 488.712 20.7213H486.889C485.368 20.7213 484.129 21.8723 484.129 23.2869V82.012C484.129 84.1697 486.015 85.9229 488.334 85.9229H490.157C487.838 85.9247 485.952 84.1697 485.952 82.012Z" fill="white"/>
</g>
</g>
</g>
</g>
</g>
</g>
<path d="M581.684 23.0838C581.684 20.8424 579.618 19.0251 577.067 19.0251H486.921C484.371 19.0251 482.305 20.8424 482.305 23.0838V29.8115H581.682V23.0838H581.684Z" fill="#E0E0E0"/>
<path d="M581.684 31.5077H482.307C481.299 31.5077 480.484 30.7469 480.484 29.8115V23.0838C480.484 19.9106 483.373 17.3271 486.923 17.3271H577.067C580.618 17.3271 583.507 19.9088 583.507 23.0838V29.8115C583.507 30.7487 582.691 31.5077 581.684 31.5077ZM484.128 28.1154H579.859V23.0838C579.859 21.7814 578.605 20.7213 577.066 20.7213H486.921C485.382 20.7213 484.128 21.7814 484.128 23.0838V28.1154Z" fill="#1E2128"/>
<path opacity="0.89" d="M528.534 39.2653H492.683C491.89 39.2653 491.247 38.6666 491.247 37.929C491.247 37.1914 491.89 36.5927 492.683 36.5927H528.534C529.327 36.5927 529.97 37.1914 529.97 37.929C529.97 38.6666 529.327 39.2653 528.534 39.2653Z" fill="#14E956"/>
<path opacity="0.11" d="M514.384 47.6322H492.683C491.89 47.6322 491.247 47.0335 491.247 46.2959C491.247 45.5583 491.89 44.9596 492.683 44.9596H514.384C515.176 44.9596 515.82 45.5583 515.82 46.2959C515.82 47.0335 515.176 47.6322 514.384 47.6322Z" fill="#F75C4C"/>
<path opacity="0.89" d="M566.274 47.6322H522.246C521.453 47.6322 520.81 47.0335 520.81 46.2959C520.81 45.5583 521.453 44.9596 522.246 44.9596H566.274C567.066 44.9596 567.71 45.5583 567.71 46.2959C567.71 47.0335 567.066 47.6322 566.274 47.6322Z" fill="#EEF7FB"/>
<path opacity="0.11" d="M536.082 55.5751H492.683C491.89 55.5751 491.247 54.9764 491.247 54.2388C491.247 53.5011 491.89 52.9025 492.683 52.9025H536.082C536.875 52.9025 537.519 53.5011 537.519 54.2388C537.519 54.9764 536.875 55.5751 536.082 55.5751Z" fill="#14E956"/>
<path opacity="0.89" d="M557.467 55.5751H543.629C542.836 55.5751 542.193 54.9764 542.193 54.2388C542.193 53.5011 542.836 52.9025 543.629 52.9025H557.467C558.26 52.9025 558.903 53.5011 558.903 54.2388C558.903 54.9764 558.26 55.5751 557.467 55.5751Z" fill="#FFEB3B"/>
<path opacity="0.11" d="M551.179 63.2079H492.685C491.892 63.2079 491.249 62.6092 491.249 61.8716C491.249 61.134 491.892 60.5353 492.685 60.5353H551.179C551.972 60.5353 552.615 61.134 552.615 61.8716C552.615 62.6092 551.972 63.2079 551.179 63.2079Z" fill="#EEF7FB"/>
<path opacity="0.89" d="M513.44 71.0367H492.683C491.89 71.0367 491.247 70.4381 491.247 69.7004C491.247 68.9628 491.89 68.3642 492.683 68.3642H513.44C514.232 68.3642 514.876 68.9628 514.876 69.7004C514.876 70.4381 514.232 71.0367 513.44 71.0367Z" fill="#BA68C8"/>
<path opacity="0.11" d="M561.241 71.0367H521.616C520.823 71.0367 520.18 70.4381 520.18 69.7004C520.18 68.9628 520.823 68.3642 521.616 68.3642H561.241C562.034 68.3642 562.678 68.9628 562.678 69.7004C562.678 70.4381 562.036 71.0367 561.241 71.0367Z" fill="#14E956"/>
<path opacity="0.89" d="M541.115 79.7119H492.685C491.892 79.7119 491.249 79.1132 491.249 78.3756C491.249 77.6379 491.892 77.0393 492.685 77.0393H541.115C541.907 77.0393 542.551 77.6379 542.551 78.3756C542.551 79.115 541.907 79.7119 541.115 79.7119Z" fill="#EEF7FB"/>
<path opacity="0.11" d="M492.368 24.9148C493.02 24.9148 493.548 24.4235 493.548 23.8175C493.548 23.2116 493.02 22.7202 492.368 22.7202C491.717 22.7202 491.189 23.2116 491.189 23.8175C491.189 24.4235 491.717 24.9148 492.368 24.9148Z" fill="#37282E"/>
<path opacity="0.89" d="M497.841 25.5852C498.89 25.5852 499.741 24.7937 499.741 23.8175C499.741 22.8413 498.89 22.0498 497.841 22.0498C496.792 22.0498 495.941 22.8413 495.941 23.8175C495.941 24.7937 496.792 25.5852 497.841 25.5852Z" fill="#E6AC41"/>
<path opacity="0.11" d="M503.314 24.9148C503.965 24.9148 504.493 24.4235 504.493 23.8175C504.493 23.2116 503.965 22.7202 503.314 22.7202C502.662 22.7202 502.134 23.2116 502.134 23.8175C502.134 24.4235 502.662 24.9148 503.314 24.9148Z" fill="#1B342C"/>
<g opacity="0.5">
<g opacity="0.5">
<g opacity="0.5">
<g opacity="0.5">
<g opacity="0.5">
<g opacity="0.5">
<path opacity="0.5" d="M550.287 8.81367L538.505 0.063385L511.205 31.8908L522.987 40.6411L550.287 8.81367Z" fill="white"/>
</g>
</g>
</g>
</g>
</g>
</g>
<g opacity="0.5">
<g opacity="0.5">
<g opacity="0.5">
<g opacity="0.5">
<g opacity="0.5">
<g opacity="0.5">
<path opacity="0.5" d="M571.957 5.44148L565.858 0.911301L538.558 32.7387L544.657 37.2691L571.957 5.44148Z" fill="white"/>
</g>
</g>
</g>
</g>
</g>
</g>
<g opacity="0.2">
<g opacity="0.2">
<g opacity="0.2">
<g opacity="0.2">
<g opacity="0.2">
<g opacity="0.2">
<path opacity="0.2" d="M579.407 19.4438C579.407 19.4438 544.073 85.6093 482.896 83.1737L486.01 87.881H577.073L581.743 83.8971L581.734 23.4722L579.407 19.4438Z" fill="#1E2128"/>
</g>
</g>
</g>
</g>
</g>
</g>
<path d="M525.836 322.133H476.644L468.953 243.558H533.528L525.836 322.133Z" fill="#FEF5E7"/>
<path d="M525.836 324.549H476.644C475.3 324.549 474.18 323.596 474.057 322.352L466.366 243.777C466.299 243.1 466.542 242.43 467.034 241.927C467.526 241.425 468.221 241.14 468.951 241.14H533.528C534.258 241.14 534.955 241.425 535.445 241.927C535.937 242.428 536.18 243.1 536.113 243.777L528.419 322.352C528.301 323.596 527.178 324.549 525.836 324.549ZM479.015 319.717H523.464L530.685 245.976H471.796L479.015 319.717Z" fill="#1E2128"/>
<g opacity="0.4">
<g opacity="0.4">
<g opacity="0.4">
<g opacity="0.4">
<g opacity="0.4">
<g opacity="0.4">
<path opacity="0.4" d="M471.796 245.974L479.015 319.717H484.21L476.991 245.974H471.796Z" fill="white"/>
</g>
</g>
</g>
</g>
</g>
</g>
<path d="M540.502 260.844H466.046V300.779H540.502V260.844Z" fill="#BE8C6B"/>
<path d="M540.502 302.561H466.046C464.989 302.561 464.131 301.763 464.131 300.779V260.844C464.131 259.86 464.989 259.062 466.046 259.062H540.502C541.559 259.062 542.417 259.86 542.417 260.844V300.779C542.417 301.763 541.561 302.561 540.502 302.561ZM467.962 298.997H538.589V262.626H467.962V298.997Z" fill="#1E2128"/>
<g opacity="0.5">
<g opacity="0.5">
<g opacity="0.5">
<g opacity="0.5">
<g opacity="0.5">
<g opacity="0.5">
<path opacity="0.5" d="M476.964 298.766H482.159L478.643 262.857H473.448L476.964 298.766Z" fill="white"/>
</g>
</g>
</g>
</g>
</g>
</g>
<path d="M492.57 286.611C492.593 286.604 492.616 286.586 492.639 286.586C492.84 286.565 493.836 286.076 494.824 285.378C495.842 284.678 496.966 283.764 497.82 282.875C498.144 282.538 498.426 282.203 498.65 281.898C499.437 280.813 499.739 279.628 500.128 278.249C500.518 276.888 501.011 275.327 502.353 273.795C502.408 273.731 502.475 273.656 502.546 273.576C503.634 272.448 504.892 271.985 505.991 271.523C506.464 271.322 506.922 271.121 507.37 270.882C506.362 270.422 505.194 270.23 503.959 270.296C501.056 270.449 497.753 272.003 495.151 274.718C491.373 278.663 490.37 283.687 492.57 286.611Z" fill="#1E2128"/>
<path d="M511.029 281.223C511.217 280.705 511.364 280.195 511.469 279.687C511.607 279.023 511.669 278.369 511.653 277.74C511.613 276.11 511.062 274.654 509.97 273.585C509.131 274.132 508.312 274.49 507.599 274.786C506.437 275.261 505.587 275.614 504.923 276.313C504.888 276.348 504.85 276.395 504.8 276.452C503.774 277.626 503.383 278.795 503.002 280.122C502.627 281.439 502.288 282.912 501.212 284.4C500.917 284.808 500.568 285.212 500.189 285.608C499.191 286.648 497.97 287.634 496.838 288.405C496.155 288.867 495.544 289.241 494.979 289.524C496.134 290.274 497.564 290.59 499.113 290.508C501.991 290.356 505.26 288.826 507.854 286.149C507.877 286.126 507.898 286.103 507.921 286.085C509.376 284.571 510.418 282.882 511.029 281.223Z" fill="#1E2128"/>
<path d="M538.893 246.886H463.587V245.765C463.587 241.279 467.495 237.641 472.319 237.641H530.164C534.985 237.641 538.895 241.277 538.895 245.765V246.886H538.893Z" fill="#707070"/>
<path d="M538.893 249.302H463.587C462.153 249.302 460.991 248.22 460.991 246.886V245.765C460.991 239.953 466.073 235.225 472.319 235.225H530.164C536.41 235.225 541.492 239.953 541.492 245.765V246.886C541.492 248.22 540.328 249.302 538.893 249.302ZM466.344 244.468H536.136C535.504 241.944 533.065 240.058 530.162 240.058H472.317C469.414 240.058 466.976 241.944 466.344 244.468Z" fill="#1E2128"/>
<g opacity="0.5">
<g opacity="0.5">
<g opacity="0.5">
<g opacity="0.5">
<g opacity="0.5">
<g opacity="0.5">
<path opacity="0.5" d="M474.05 241.669H531.895C533.157 241.669 534.317 242.042 535.294 242.651C534.196 241.094 532.31 240.058 530.164 240.058H472.319C469.416 240.058 466.976 241.945 466.344 244.47H468.788C469.858 242.797 471.811 241.669 474.05 241.669Z" fill="white"/>
</g>
</g>
</g>
</g>
</g>
</g>
<path d="M472.727 237.641H529.752V234.46C529.752 231.852 527.544 229.707 524.745 229.593L478.19 227.706C475.212 227.585 472.727 229.799 472.727 232.574V237.641Z" fill="#707070"/>
<path d="M529.754 240.058H472.729C471.294 240.058 470.132 238.977 470.132 237.642V232.575C470.132 230.569 470.99 228.698 472.549 227.312C474.105 225.924 476.139 225.203 478.306 225.295L524.862 227.182C529.063 227.353 532.354 230.551 532.354 234.464V237.644C532.351 238.975 531.188 240.058 529.754 240.058ZM475.325 235.225H527.156V234.46C527.156 233.142 526.047 232.066 524.632 232.009L478.077 230.122C477.351 230.09 476.662 230.334 476.137 230.801C475.612 231.268 475.323 231.898 475.323 232.574V235.225H475.325Z" fill="#1E2128"/>
<g opacity="0.5">
<g opacity="0.5">
<g opacity="0.5">
<g opacity="0.5">
<g opacity="0.5">
<g opacity="0.5">
<path opacity="0.5" d="M477.056 233.379C477.056 232.704 477.345 232.073 477.87 231.606C478.395 231.137 479.08 230.892 479.81 230.927L526.365 232.814C526.405 232.816 526.443 232.827 526.483 232.83C526.026 232.353 525.375 232.039 524.634 232.009L478.079 230.122C477.349 230.088 476.664 230.334 476.139 230.801C475.614 231.268 475.325 231.898 475.325 232.574V235.225H477.056V233.379Z" fill="white"/>
</g>
</g>
</g>
</g>
</g>
</g>
<g opacity="0.3">
<g opacity="0.3">
<g opacity="0.3">
<g opacity="0.3">
<g opacity="0.3">
<g opacity="0.3">
<path opacity="0.3" d="M471.988 247.93L472.227 250.378L509.796 251.584C516.222 251.791 520.976 257.211 519.908 263.112C516.57 281.538 506.61 316.537 478.919 318.74L479.015 319.717H521.733L528.76 247.93H471.988Z" fill="#1E2128"/>
</g>
</g>
</g>
</g>
</g>
</g>
<g opacity="0.3">
<g opacity="0.3">
<g opacity="0.3">
<g opacity="0.3">
<g opacity="0.3">
<g opacity="0.3">
<path opacity="0.3" d="M589.288 413H17.7121C7.9293 413 0 405.622 0 396.519C0 387.416 7.9293 380.038 17.7121 380.038H589.288C599.071 380.038 607 387.416 607 396.519C607 405.622 599.071 413 589.288 413Z" fill="#1E2128"/>
</g>
</g>
</g>
</g>
</g>
</g>
<path d="M154.588 184.391C151.407 184.391 148.56 182.86 146.969 180.298L139.945 168.977L122.028 168.975C114.824 168.936 108.979 163.912 108.979 157.777V127.531C108.979 121.356 114.863 116.331 122.097 116.331H187.082C194.317 116.331 200.201 121.356 200.201 127.531V157.777C200.201 163.955 194.317 168.979 187.082 168.979H169.232L162.209 180.3C160.616 182.86 157.768 184.391 154.588 184.391Z" fill="#1E2128"/>
<path d="M187.08 119.159C192.647 119.159 197.158 122.908 197.158 127.531V157.777C197.158 162.401 192.647 166.15 187.08 166.15H167.475L165.596 169.177L159.572 178.885C158.463 180.671 156.526 181.563 154.586 181.563C152.646 181.563 150.708 180.671 149.6 178.885L143.576 169.177L141.697 166.15L122.024 166.148C116.49 166.118 112.014 162.383 112.014 157.779V127.533C112.014 122.909 116.525 119.161 122.091 119.161H187.08V119.159ZM187.08 113.502H122.095C113.185 113.502 105.936 119.795 105.936 127.531V157.777C105.936 165.464 113.138 171.755 121.992 171.805L138.189 171.807L138.314 172.006L144.338 181.713C146.477 185.16 150.308 187.22 154.59 187.22C158.869 187.22 162.701 185.16 164.842 181.713L170.866 172.004L170.988 171.807H187.082C195.992 171.807 203.242 165.514 203.242 157.777V127.531C203.238 119.795 195.99 113.502 187.08 113.502Z" fill="#34A958"/>
<path d="M144.811 152.787C144.33 152.787 143.848 152.619 143.474 152.283L133.622 143.362C133.253 143.027 133.044 142.565 133.044 142.084C133.044 141.603 133.253 141.143 133.622 140.807L142.838 132.459C143.597 131.773 144.809 131.788 145.546 132.493C146.283 133.199 146.268 134.327 145.51 135.013L137.705 142.082L146.145 149.728C146.904 150.414 146.919 151.541 146.182 152.247C145.808 152.607 145.31 152.787 144.811 152.787Z" fill="white"/>
<path d="M164.363 152.787C163.865 152.787 163.365 152.607 162.99 152.249C162.253 151.543 162.268 150.415 163.026 149.729L171.467 142.084L163.662 135.014C162.904 134.328 162.889 133.201 163.626 132.495C164.363 131.789 165.577 131.775 166.333 132.461L175.549 140.808C175.919 141.143 176.128 141.605 176.128 142.086C176.128 142.567 175.919 143.027 175.549 143.363L165.698 152.284C165.328 152.619 164.846 152.787 164.363 152.787Z" fill="white"/>
<path d="M150.934 157.585C150.772 157.585 150.607 157.565 150.444 157.526C149.422 157.275 148.811 156.3 149.083 155.349L156.709 128.488C156.979 127.536 158.031 126.968 159.049 127.221C160.072 127.472 160.683 128.447 160.411 129.398L152.784 156.259C152.558 157.056 151.783 157.585 150.934 157.585Z" fill="white"/>
<g opacity="0.6">
<g opacity="0.6">
<g opacity="0.6">
<g opacity="0.6">
<g opacity="0.6">
<g opacity="0.6">
<g opacity="0.6">
<path opacity="0.6" d="M501.129 213.205C500.336 213.205 499.693 212.606 499.693 211.868V210.005C499.693 208.291 498.194 206.896 496.352 206.896H479.017C475.3 206.896 472.275 204.08 472.275 200.622C472.275 197.164 475.3 194.349 479.017 194.349H519.261C520.919 194.349 522.267 193.093 522.267 191.55C522.267 190.007 520.917 188.752 519.261 188.752H485.799C485.006 188.752 484.363 188.154 484.363 187.416C484.363 186.678 485.006 186.08 485.799 186.08H519.261C522.502 186.08 525.139 188.533 525.139 191.55C525.139 194.566 522.502 197.021 519.261 197.021H479.017C476.884 197.021 475.147 198.637 475.147 200.622C475.147 202.609 476.884 204.223 479.017 204.223H496.352C499.777 204.223 502.565 206.817 502.565 210.005V211.868C502.565 212.606 501.922 213.205 501.129 213.205Z" fill="#FFFAFA"/>
</g>
</g>
</g>
</g>
</g>
</g>
<g opacity="0.6">
<g opacity="0.6">
<g opacity="0.6">
<g opacity="0.6">
<g opacity="0.6">
<g opacity="0.6">
<path opacity="0.6" d="M478.745 188.751H473.69C472.897 188.751 472.254 188.152 472.254 187.414C472.254 186.677 472.897 186.078 473.69 186.078H478.745C479.538 186.078 480.181 186.677 480.181 187.414C480.181 188.152 479.538 188.751 478.745 188.751Z" fill="#FFFAFA"/>
</g>
</g>
</g>
</g>
</g>
</g>
<g opacity="0.6">
<g opacity="0.6">
<g opacity="0.6">
<g opacity="0.6">
<g opacity="0.6">
<g opacity="0.6">
<path opacity="0.6" d="M488.348 180.286H464.514C463.721 180.286 463.078 179.687 463.078 178.949C463.078 178.212 463.721 177.613 464.514 177.613H488.348C489.141 177.613 489.784 178.212 489.784 178.949C489.784 179.687 489.141 180.286 488.348 180.286Z" fill="#FFFAFA"/>
</g>
</g>
</g>
</g>
</g>
</g>
</g>
<g opacity="0.2">
<g opacity="0.2">
<g opacity="0.2">
<g opacity="0.2">
<g opacity="0.2">
<g opacity="0.2">
<path opacity="0.2" d="M187.08 119.159H180.379C185.945 119.159 190.456 122.908 190.456 127.531V138.139C187.653 159.107 171.243 161.435 163.911 164.803C161.826 165.761 160.083 167.261 158.919 169.136L158.894 169.175L152.87 178.884C152.437 179.582 151.874 180.14 151.235 180.564C153.858 182.312 157.789 181.756 159.572 178.884L165.156 169.886L190.047 167.57L191.521 165.284C194.857 163.919 197.158 161.075 197.158 157.777V127.531C197.158 122.908 192.645 119.159 187.08 119.159Z" fill="#1E2128"/>
</g>
</g>
</g>
</g>
</g>
</g>
</g>
<defs>
<clipPath id="clip0_17_12">
<rect width="607" height="413" fill="white"/>
</clipPath>
</defs>
</svg>
